<svg xmlns="http://www.w3.org/2000/svg" width="372.533" height="254.669" viewBox="0 0 372.533 254.669">
  <g id="Group_9" data-name="Group 9" transform="translate(72.504 -182.496)">
    <path id="Vector_2009" data-name="Vector 2009" d="M4.188,115.49c-8.255-5.245-9.906-24.033,49.528-57.221C76.309,45.653,84.107,37.307,82.494,15.83,81.222-1.11,156.92-16.023,245.8,35.858,281.72,57,293.557,108.91,236.724,137.744c-98.589,50.02-161.592,66.916-193.718,34.49-13.029-13.15-1.2-28.038-11.378-42.916-3.123-4.567-15.118-6-27.441-13.828Z" transform="translate(-24.261 215.459)" fill="none" stroke="#fafafa" stroke-width="1"/>
    <path id="Vector_2013" data-name="Vector 2013" d="M3.812,104.907C-3.7,100.142-5.206,83.077,48.9,52.93,69.471,41.469,76.57,33.888,75.1,14.38,73.944-1.009,142.858-14.555,223.775,32.572c32.7,19.2,43.475,66.358-8.264,92.55C125.757,170.558,68.4,185.905,39.152,156.451c-11.861-11.945-1.1-25.469-10.358-38.983-2.843-4.149-13.763-5.448-24.982-12.561Z" transform="translate(-12.084 224.407)" fill="none" stroke="#fafafa" stroke-width="1"/>
    <path id="Vector_2014" data-name="Vector 2014" d="M3.232,88.99C-3.139,84.948-4.413,70.472,41.453,44.9c17.436-9.722,23.454-16.152,22.209-32.7C62.681-.856,121.1-12.346,189.69,27.63c27.719,16.289,36.853,56.29-7.005,78.508C106.6,144.68,57.981,157.7,33.189,132.714c-10.055-10.133-.93-21.6-8.781-33.068C22,96.126,12.741,95.024,3.232,88.99Z" transform="translate(7.056 237.421)" fill="none" stroke="#fafafa" stroke-width="1"/>
    <path id="Vector_2010" data-name="Vector 2010" d="M4.691,128.122c-9.248-5.819-11.1-26.661,55.486-63.48,25.312-14,34.048-23.255,32.241-47.081C90.993-1.232,175.8-17.775,275.372,39.78c40.24,23.452,53.5,81.042-10.169,113.03C154.753,208.3,84.17,227.044,48.18,191.072c-14.6-14.589-1.35-31.105-12.747-47.61-3.5-5.067-16.936-6.654-30.742-15.341Z" transform="translate(-40.866 205.131)" fill="none" stroke="#fafafa" stroke-width="1"/>
    <path id="Vector_2011" data-name="Vector 2011" d="M5.211,143.461c-10.272-6.516-12.326-29.853,61.63-71.079,28.115-15.672,37.818-26.039,35.812-52.717C101.07-1.379,195.265-19.9,305.866,44.542c44.7,26.26,59.424,90.744-11.3,126.562-122.68,62.134-201.079,83.122-241.056,42.843-16.213-16.335-1.5-34.829-14.158-53.31-3.886-5.673-18.812-7.45-34.146-17.177Z" transform="translate(-57.471 192.59)" fill="none" stroke="rgba(250,250,250,0.9)" stroke-width="1"/>
    <path id="Vector_2012" data-name="Vector 2012" d="M5.636,155.19C-5.474,148.142-7.7,122.9,72.293,78.3c30.408-16.953,40.9-28.168,38.733-57.027-1.712-22.764,100.166-42.8,219.79,26.912,48.342,28.407,64.272,98.164-12.217,136.91C185.912,252.308,101.118,275.011,57.88,231.44c-17.535-17.671-1.621-37.677-15.313-57.668-4.2-6.137-20.346-8.06-36.931-18.582Z" transform="translate(-72 183)" fill="none" stroke="rgba(250,250,250,0.7)" stroke-width="1"/>
  </g>
</svg>
